<svg id="Layer_1" data-name="Layer 1" xmlns="http://www.w3.org/2000/svg" xmlns:xlink="http://www.w3.org/1999/xlink" viewBox="0 0 800 800"><defs><style>.cls-1{fill:url(#linear-gradient);}</style><linearGradient id="linear-gradient" x1="60.03" y1="330.69" x2="855.29" y2="712.41" gradientUnits="userSpaceOnUse"><stop offset="0" stop-color="#13577a"/><stop offset="0.32" stop-color="#5ab8aa"/><stop offset="0.86" stop-color="#8dc121"/></linearGradient></defs><path class="cls-1" d="M795.84,786.52h-92.1a47.66,47.66,0,0,1-42.63-26.35h0C600.72,660.51,523.66,631.3,474.25,631.44v-101c43.12-.33,78.12,30,107.72,71.39L400,237.78,217.76,602.39c29.67-41.68,64.78-72.23,108.07-71.9v101c-49.57-.14-127,29.25-187.46,129.72h0a45.77,45.77,0,0,1-40.95,25.31H4.16A3.1,3.1,0,0,1,1.39,782L336.71,111.16l42.36-84.75c8.62-17.24,33.24-17.24,41.86,0l42.36,84.75L798.61,782A3.1,3.1,0,0,1,795.84,786.52ZM433.64,502.2c-5.77,3.85-12.14,6.83-17.49,11.25-8.93,7.38-13.93,18.16-16.24,29.61-4.72-20.28-21.37-38-26.44-60-2.26-9.8-3.13-20.09-7.55-29.12-5.88-12-17.25-20.27-28.66-27.23,9,12.36,8.9,29.07,6.92,44.25s-5.4,30.75-1.64,45.59c4.88,19.26,20.77,33.43,35.85,46.34,1.16,1,2.37,2,3.61,3v94c10.72,9.24,21.1,18.88,32.08,27.81V571.19c34.33-25.18,44.85-51.81,48.3-62.42,5.06-15.6-1.55-27.93,10.86-52.76C451.52,466.87,449.84,491.42,433.64,502.2Z"/></svg>