<?xml version="1.0" encoding="utf-8"?>
<!-- Generator: Adobe Illustrator 28.0.0, SVG Export Plug-In . SVG Version: 6.00 Build 0)  -->
<svg version="1.1" id="katman_1" xmlns="http://www.w3.org/2000/svg" xmlns:xlink="http://www.w3.org/1999/xlink" x="0px" y="0px"
	 viewBox="0 0 290 294" style="enable-background:new 0 0 290 294;" xml:space="preserve">
<style type="text/css">
	.st0{fill-rule:evenodd;clip-rule:evenodd;}
	.st1{fill:#FF7C2B;}
</style>
<path class="st0" d="M29.1,110.7c15.4-48.3,60.6-83.3,113.9-83.3c66,0,119.5,53.5,119.5,119.6c0,61.3-46.2,111.9-105.7,118.8v-37.6
	c26.1-4.4,48-21.1,59.6-43.9h-33.1c-10,10.8-24.4,17.6-40.3,17.6c-30.3,0-54.9-24.6-54.9-54.8c0-30.3,24.6-54.8,54.9-54.8
	c16.4,0,31.1,7.2,41.2,18.6H217c-13.4-27.3-41.5-46-73.9-46c-45.5,0-82.3,36.8-82.3,82.3c0,40.8,29.7,74.6,68.6,81.1v37.6
	c-47-5.4-85.7-37.9-99.9-81.5H0.9C17.3,247.4,74.8,294,143.1,294c81.2,0,147-65.8,147-147c0-81.2-65.8-147-147-147
	C74.4,0,16.7,47.1,0.6,110.7C0.6,110.7,29.1,110.7,29.1,110.7z"/>
<path class="st1" d="M173.2,146.9c0,16.7-13.5,30.2-30.2,30.2s-30.2-13.5-30.2-30.2s13.5-30.2,30.2-30.2S173.2,130.3,173.2,146.9
	L173.2,146.9z"/>
</svg>
