<?xml version="1.0" encoding="UTF-8"?><svg id="Isolation_Mode" xmlns="http://www.w3.org/2000/svg" viewBox="0 0 405 405"><defs><style>.cls-1{font-family:Vollkorn-Bold, Vollkorn;font-size:33px;font-weight:700;}.cls-1,.cls-2{fill:#dca95a;}.cls-3{fill:#dca958;fill-rule:evenodd;stroke:#424142;}.cls-3,.cls-4{stroke-miterlimit:10;}.cls-4{fill:#414042;stroke:#dda959;stroke-width:3.08px;}.cls-5{fill:#dda95a;}.cls-5,.cls-2{stroke-width:0px;}</style></defs><circle class="cls-4" cx="202.5" cy="202.5" r="120.99"/><path class="cls-3" d="m186.29,237.73c2.11-1.93,4.13-3.95,6.06-6.06,1.24-1.06,2.4-2.22,3.46-3.46.81-.63,1.53-1.35,2.16-2.16,1.13-2.04,3.06-3.29,3.46-6.06-5.68,1.68-14.16.55-16.44,5.63-1.26,1.48-2.83,2.65-4.11,4.11-2.99,2.27-5.78,4.75-8.87,6.92,1.48,1.91,2.67,4.11,3.03,7.14,5.55,1.01,7.98,5.15,12.33,7.36.45.65,1.14-.29,1.95,0,1.01-.14,2.59.28,3.25-.22,1.28.06,2.43-.02,3.24-.43.59-2.44-.17-5.08-3.03-4.76-1.09-.5-3.1-.07-4.54-.22-2.52-.65-4.37-4.87-2.6-7.14.31-.12.53-.34.65-.65Z"/><path class="cls-3" d="m252.93,219.78c.25,3.36,1.49,5.72,4.33,6.49.97-7.61,2.91-14.25,3.68-22.07-.1-.76-.55-1.18-.87-1.73-.31.12-1.12-.25-1.08.22-2.35,1.54-5.24,2.55-6.49,5.19-.49.37-.08,1.65-.22,2.38.14,1.23-.28,3.03.22,3.89.14,1.01-.28,2.59.22,3.24.14.73-.28,2.01.22,2.38Z"/><path class="cls-3" d="m104.94,244.87c1.13,1.53,3,2.31,4.11,3.24h.43c1.01.78,3.66.46,4.76,0,3.84-.42,7.44-1.07,11.25-1.51,1.28.13,1.93-.38,3.24-.22,2.46.35,4.82.8,7.36,1.08,0,.21.26.17.43.22.44.36,2.37.36,2.81,0,.25.03.38-.05.43-.22,2.46-.72,3.99-2.36,5.84-3.68.18-.04.22-.22.43-.22,1.03-.85,1.97-1.78,2.81-2.81.08-.28.38-.34.43-.65,1.29-1.52,2.97-4.13,3.68-6.71.87-3.18.2-7.78,2.81-9.09.81-.63,1.53-1.35,2.16-2.16.43-.8,1.11-1.34,1.08-2.6.52-1.08.23-1.92.22-3.25-.46-2.71-1.43-4.92-1.51-8.01.14-.73-.28-2.01.22-2.38,1.43,5.15,4.94,10.23,3.68,16.66-.63,1.32-1.72,2.18-2.6,3.24-1.68,2.07-1.79,5.71-2.16,9.09-.47-.04-.1.77-.22,1.08-.36.87-.36,3.24,0,4.11.12.38-.26,1.27.22,1.3-.1,1.25.09,2.22.22,3.24,3.24-.51,6.19-1.31,9.74-1.51h2.6c.97-.08,1.75.85,2.38.43-.33-2.98-2.34-4.29-3.25-6.71,3.08-4.25,8.83-7.88,13.2-11.68,1.39-1.21,2.69-2.51,3.89-3.89,2.41-3.21,4.28-6.97,5.84-11.03.5,1.3.07,3.53.22,5.19v1.3c.11.68-.39.76-.22,1.51-.4.03-.13.73-.43.87.37.36,2.22.36,2.6,0,12.64-2.07,22.91-6.51,34.18-9.95,1.28-.16.38-2.51.65-3.68v-1.51c.49-.3.08-1.51.22-2.16v-1.3c.36-.37.36-2.22,0-2.6-.12-.31.25-1.12-.22-1.08v-.22c3.89,4.87,4.45,13.86,5.84,21.64,1.44,8.05,3.78,14.98,8.87,19.04,4.37-.52,7.86,3.79,12.12,3.24,3-.38,4.88-3.09,8.22-3.46-.82-3.87-1.85-7.53-6.06-8.01-.03-.48-.92-.09-1.3-.22-1.2-.46-3.33.01-4.11-.87-3.43-3.92-3.67-11.05-4.11-17.96v-3.89c1.09-.64,1.95-1.51,2.38-2.81,3.95-.32,4.44-3.59,8.44-4.11,1.24-1.06,2.4-2.22,3.46-3.46,5.29-7.62,3.14-22.68,6.27-32.45,3.11.14,4.16,4.15,7.57,3.46,1.26-.25,1.72-2.25,2.81-3.25,1.05-.96,3.72-1.4,4.54-2.6,1.09-1.59.37-4.09.22-5.62v-3.46c-.29-1.01.48-.96.87-1.3.37,0,.56-.16.65-.43.36-.59.36-2.66,0-3.25-.39-4.57-4.68-5.46-4.11-10.38-2.75.21-3.72-.39-5.62-1.73-.9-.11-.34,1.25-1.08,1.3.73-4.07-3.04-6.03-5.62-3.68-.56.24-1.04.55-1.3,1.08-.38.2-.67.48-.87.87-.21,0-.17-.27-.22-.43v-.87c-5.47.88-9.56,3.13-13.41,5.62-1.89,1.71-3.7,3.52-5.41,5.41-.28.08-.34.38-.65.43v.22c-1.29,1.02-3.08,1.53-5.19,1.73-.32.12-1.12-.25-1.08.22-1.45.14-2.09,1.09-3.03,1.73h-.22c-2.25,2.07-4.42,4.24-6.49,6.49-.52.34-.96.77-1.3,1.3-15.64,12.56-39.97,16.42-59.28,25.31-.84.24-1.57.6-2.16,1.08-1.59.87-3.12,1.78-4.76,2.6-.94.72-1.76,1.56-2.38,2.6-5.03,8.09-8.76,17.49-12.76,26.61-.7,1.03-1.27,2.19-1.73,3.46-1.66,3.31-3.95,6-5.84,9.09-.31.12-.53.34-.65.65-1.1.92-2.11,1.93-3.03,3.03-.45.27-.81.63-1.08,1.08-3.17,2.17-6.5,4.18-11.25,4.76h-3.46c-2.91-.41-5.52-1.11-6.92-3.03,1.19-.39,2.53-.64,3.46-1.3-.32-6.96-2.68-11.89-8.65-13.2,0-.21-.27-.17-.43-.22-.44-.36-2.37-.36-2.81,0-.31-.02-.61-.04-.65.22-1.93.09-2.83,1.21-4.33,1.73-.76.61-1.53,1.21-1.95,2.16-1.51,4.17,1.87,5.65,3.03,8.87,1.65,4.57.69,10.04,3.03,13.2Z"/><path class="cls-3" d="m301.5,249.56l-11.75-1.57c-5.1-3.46-10.74-6.37-15.4-10.26-.99.31-2.03.56-3.24.65-.8.14-2.16-.28-2.6.22-.31.12-1.12-.25-1.08.22-4.02-.16-8.88,4.3-12.55,4.54-3.68.24-6.07-2.72-9.95-3.25-2.46,1.32-2.76,3.92-5.19,5.19-2.58,1.34-6.35,1.85-9.52,2.81-3.74,1.13-7.79,2.23-10.38,3.89-.18.04-.22.22-.43.22-.88.7-1.68,1.5-2.38,2.38-1.94,3.25-6.52.66-9.95.43-.16-.49-1.21-.08-1.73-.22.04-.47-.77-.1-1.08-.22-.37-.36-2.22-.36-2.6,0h-1.3c-.73.14-2.01-.28-2.38.22-.31.12-1.12-.25-1.08.22-2.32-.09-4.13.34-6.27.43-.66.14-1.86-.28-2.16.22-.36,0-.72,0-1.08,0-5.37-3.5-9.52-8.22-17.09-9.52.04-.47-.77-.1-1.08-.22-.3-.36-2.08-.36-2.38,0-.59.13-1.72-.28-1.95.22-8.3.71-14.44,3.59-22.28,4.76h-1.95c-10.09-2.88-21.28-1.34-31.37.65-3.24,6.14-4.88,13.87-9.09,19.04,1.84.04,3.87-1.61,4.98-3.03.94-.79,2.12-1.34,2.6-2.6,1.77-2.2,2.44-5.49,3.89-8.01,3.92-.99,8.35-1.45,12.55-2.16h4.11c2.47.2,4.91.43,6.92,1.08-.15,2.23-1,3.76-1.3,5.84-1.27,1.26-3.27,1.78-4.33,3.24,3.35-.87,9.62-.59,11.03-3.68.36-.78,0-2.57.65-3.68,1.14-1.93,9.05-3.97,11.68-4.76,5.04-1.51,9.99-2.48,14.06-2.38,4.1.1,6.87,4.45,8.01,7.36.14,2.31-.29,5.19.22,7.14,0,.21.26.17.43.22,5.01,3.5,12.62,4.4,18.17,7.36.05.31.65.08.65.43.25-.03.18-.39.22-.65-.92-1.1-1.93-2.11-3.03-3.03-2.63-1.05-5.2-2.15-7.79-3.24-.74-.56-1.61-.99-2.6-1.3-.61-.61-1.71-.74-2.16-1.51v-6.92h.43c1.67,1.28,2.81,3.1,4.98,3.89,0,.21.27.17.43.22,3.17.36,7.86.36,11.03,0,2.25-.35,4.4-.79,6.71-1.08h2.81c1.96.53,3.51,1.26,5.41,1.95,1.42.52,3.96,2,5.63,1.73,2.22-.36,5.58-7.05,8-8.01,5.7-2.26,13.23-2.74,16.88-5.41,1.44-.79,2.34-2.13,3.46-3.24.25.03.38-.05.43-.22h.43v3.68c-1.56,2.92-5.27,2.7-7.14,5.41-2.05,2.98-1.36,7.51-3.24,11.25-4.33,2.3-8.61,4.66-12.77,7.14,5.31-.6,10.37-3.34,15.14-5.19,1.35-3.7,2.87-7.22,4.11-11.03,3.51-2.84,7.79-4.9,8.87-10.17,7.11,3.08,10.92-4.39,18.82-3.89h2.38c1.74.27,2.29,2.14,4.11,2.81l18.12,10.33s35.76,8.48,7.3-6.94Zm-14.33-1.91l-1.03-.14c.35.04.69.09,1.03.14Z"/><path class="cls-4" d="m202.5,3.63C92.67,3.63,3.63,92.67,3.63,202.5s89.04,198.87,198.87,198.87,198.87-89.04,198.87-198.87S312.33,3.63,202.5,3.63Zm0,311.52c-61.43,0-111.23-50.44-111.23-112.65s49.8-112.65,111.23-112.65,111.23,50.44,111.23,112.65-49.8,112.65-111.23,112.65Z"/><path class="cls-5" d="m200.71,360.54c-40.04,0-78.26-14.82-107.76-41.8-.53-.13-1.76-.4-3.38-.55-.06,3.22-.75,7.04-3.09,10.31-3.11,4.37-8.41,6.77-15.73,7.13l-1.44.07.07-1.44c.36-7.32,2.76-12.62,7.13-15.73,3.28-2.33,7.09-3.03,10.32-3.09-.15-1.62-.43-2.85-.56-3.38-27.23-29.77-42.07-68.42-41.8-108.85.27-40.48,15.68-78.97,43.38-108.4.15-.55.5-1.91.64-3.66-2.3-.14-4.86-.72-7.2-2.2-4.02-2.53-6.46-7.05-7.25-13.45l-.21-1.66,1.67.2c6.4.79,10.93,3.23,13.45,7.25,1.48,2.35,2.06,4.9,2.2,7.21,1.75-.14,3.11-.49,3.66-.65,29.43-27.71,67.92-43.11,108.4-43.38,40.39-.3,79.08,14.57,108.85,41.8.53.13,1.76.4,3.37.56.06-3.22.75-7.04,3.09-10.32,3.11-4.37,8.4-6.77,15.73-7.13l1.44-.07-.07,1.44c-.36,7.32-2.76,12.62-7.13,15.73-3.27,2.33-7.09,3.03-10.31,3.09.15,1.62.43,2.85.55,3.38,27.23,29.77,42.07,68.41,41.8,108.85-.27,40.48-15.68,78.97-43.38,108.4-.16.55-.5,1.91-.64,3.66,2.3.14,4.86.72,7.2,2.2,4.02,2.53,6.46,7.05,7.25,13.46l.2,1.66-1.66-.21c-6.4-.79-10.93-3.23-13.45-7.25-1.48-2.35-2.06-4.9-2.2-7.21-1.75.14-3.11.49-3.66.65-29.43,27.71-67.92,43.11-108.4,43.38-.36,0-.73,0-1.09,0Zm-111.23-45.01c2.53.21,4.31.72,4.48.77l.29.09.22.21c60.43,55.5,154.5,54.82,214.14-1.54l.21-.2.27-.09c.16-.05,2.09-.69,4.76-.88.19-2.68.82-4.61.88-4.77l.09-.27.2-.21c56.36-59.65,57.04-153.71,1.54-214.15l-.21-.22-.09-.29c-.05-.17-.55-1.95-.77-4.48-2.53-.21-4.31-.72-4.48-.77l-.29-.09-.22-.21c-60.43-55.5-154.5-54.82-214.14,1.54l-.21.2-.27.09c-.16.05-2.09.69-4.77.88-.19,2.68-.83,4.61-.88,4.77l-.09.27-.2.21c-56.36,59.65-57.04,153.71-1.55,214.15l.21.22.08.29c.05.17.56,1.95.77,4.48Zm-2.54,2.54c-2.83.04-6.16.62-8.92,2.6-3.39,2.42-5.38,6.54-5.92,12.24,5.7-.54,9.82-2.52,12.24-5.92,1.97-2.76,2.55-6.08,2.6-8.92Zm229.55-1.58c.13,1.91.61,3.98,1.79,5.85,1.87,2.96,5.17,4.89,9.82,5.77-.87-4.66-2.81-7.96-5.78-9.83-1.86-1.17-3.93-1.65-5.83-1.78ZM76.9,76.9c.87,4.66,2.81,7.96,5.78,9.83,1.86,1.17,3.93,1.65,5.83,1.78-.13-1.91-.61-3.98-1.79-5.85-1.87-2.96-5.17-4.89-9.82-5.76Zm256-4.8c-5.7.54-9.82,2.52-12.24,5.92-1.97,2.76-2.55,6.08-2.6,8.92,2.83-.04,6.16-.62,8.92-2.59,3.39-2.42,5.38-6.54,5.92-12.24Z"/><path class="cls-5" d="m97.65,74.94c-2.77,0-5.5-1.28-7.24-3.69-2.39-3.31-1.64-7.94,1.67-10.34,1.34-.97,2.97-1.36,4.6-1.09,1.63.26,3.06,1.14,4.03,2.48.81,1.13,1.14,2.5.92,3.88-.22,1.38-.96,2.58-2.09,3.39-.59.43-1.41.29-1.83-.3-.42-.59-.29-1.4.29-1.83.56-.4.93-1,1.04-1.69.11-.68-.05-1.37-.46-1.93-.56-.77-1.38-1.28-2.32-1.43-.94-.15-1.88.07-2.66.63-2.14,1.54-2.62,4.54-1.08,6.68,2.04,2.82,5.99,3.46,8.81,1.42,29.18-22.52,64.17-34.43,101.16-34.43.72,0,1.31.59,1.31,1.31s-.59,1.31-1.31,1.31c-36.41,0-70.85,11.73-99.59,33.91-1.59,1.15-3.44,1.71-5.26,1.71Z"/><path class="cls-5" d="m307.34,74.95c-1.81,0-3.64-.55-5.22-1.69-28.78-22.21-63.22-33.93-99.63-33.93-.72,0-1.31-.59-1.31-1.31s.59-1.31,1.31-1.31c36.99,0,71.99,11.91,101.2,34.46,2.79,2.01,6.73,1.38,8.77-1.45,1.54-2.14,1.06-5.13-1.08-6.68-.77-.56-1.72-.78-2.66-.63-.94.15-1.76.66-2.32,1.43-.83,1.16-.57,2.78.58,3.62.59.42.72,1.24.29,1.83-.42.59-1.24.72-1.83.3-1.13-.81-1.87-2.02-2.1-3.39-.22-1.38.11-2.75.92-3.88.97-1.34,2.4-2.22,4.03-2.48,1.64-.26,3.27.12,4.61,1.09,3.31,2.39,4.06,7.02,1.67,10.34-1.74,2.41-4.48,3.7-7.25,3.7Z"/><path class="cls-5" d="m66.93,315.99c-2.3,0-4.57-1.06-6.01-3.06-2-2.77-1.37-6.64,1.39-8.64,2.33-1.68,5.59-1.15,7.27,1.17.42.59.29,1.41-.3,1.83-.58.43-1.41.29-1.83-.29-.84-1.16-2.46-1.42-3.62-.59-1.59,1.15-1.95,3.38-.8,4.98,1.55,2.13,4.54,2.62,6.68,1.08,1.37-.99,2.27-2.45,2.53-4.11.27-1.66-.13-3.33-1.11-4.7-22.52-29.18-34.43-64.18-34.43-101.17,0-.72.59-1.31,1.31-1.31s1.31.59,1.31,1.31c0,36.41,11.73,70.85,33.91,99.6,1.42,1.97,1.98,4.33,1.6,6.68-.38,2.36-1.65,4.42-3.59,5.82-1.31.95-2.82,1.4-4.32,1.4Z"/><path class="cls-5" d="m38.02,203.81c-.72,0-1.31-.59-1.31-1.31,0-36.99,11.92-71.98,34.46-101.2,2.01-2.79,1.37-6.74-1.45-8.77-1.04-.75-2.3-1.05-3.56-.84-1.26.2-2.37.89-3.12,1.92-.56.77-.78,1.71-.63,2.65.15.94.66,1.77,1.43,2.32,1.16.84,2.78.58,3.62-.58.42-.59,1.24-.72,1.83-.29.59.42.72,1.24.3,1.83-1.68,2.33-4.94,2.85-7.27,1.17-1.34-.97-2.22-2.4-2.49-4.03-.26-1.63.12-3.27,1.09-4.61,1.16-1.6,2.87-2.66,4.82-2.97,1.95-.32,3.91.15,5.51,1.31,3.99,2.88,4.89,8.47,2.01,12.46-22.21,28.78-33.94,63.22-33.94,99.63,0,.72-.59,1.31-1.31,1.31Z"/><path class="cls-5" d="m202.5,368.29c-.72,0-1.31-.59-1.31-1.31s.59-1.31,1.31-1.31c36.41,0,70.85-11.73,99.6-33.91,1.97-1.42,4.33-1.98,6.68-1.6,2.35.38,4.42,1.66,5.82,3.59,2.39,3.31,1.64,7.95-1.66,10.34-1.34.97-2.98,1.35-4.61,1.09-1.63-.26-3.06-1.14-4.03-2.48-1.68-2.33-1.16-5.59,1.17-7.28.58-.42,1.4-.29,1.83.29.42.59.29,1.41-.29,1.83-1.16.84-1.42,2.46-.58,3.62.56.77,1.38,1.28,2.32,1.43.94.15,1.88-.07,2.66-.63,2.14-1.54,2.62-4.54,1.08-6.68-.99-1.37-2.45-2.27-4.11-2.54-1.67-.27-3.33.13-4.7,1.12-29.18,22.52-64.17,34.43-101.17,34.43Z"/><path class="cls-5" d="m202.5,368.29c-36.99,0-71.98-11.91-101.2-34.46-1.33-.96-3-1.36-4.67-1.09-1.66.27-3.12,1.17-4.11,2.54-1.54,2.14-1.06,5.13,1.08,6.68.77.56,1.71.78,2.66.63.94-.15,1.77-.66,2.32-1.43.84-1.16.58-2.78-.58-3.62-.58-.42-.72-1.24-.29-1.83.42-.59,1.24-.72,1.83-.3,2.33,1.68,2.86,4.95,1.17,7.27-.97,1.34-2.4,2.22-4.03,2.48-1.63.27-3.26-.12-4.6-1.09-3.31-2.39-4.06-7.03-1.67-10.34,1.4-1.93,3.46-3.21,5.82-3.59,2.35-.38,4.72.18,6.65,1.58,28.78,22.21,63.22,33.94,99.63,33.94.72,0,1.31.58,1.31,1.31s-.59,1.31-1.31,1.31Z"/><path class="cls-5" d="m366.98,203.81c-.72,0-1.31-.59-1.31-1.31,0-36.41-11.73-70.85-33.91-99.6-2.9-4.02-2-9.62,1.99-12.5,3.31-2.39,7.95-1.64,10.34,1.67.97,1.34,1.35,2.98,1.09,4.61-.26,1.63-1.15,3.06-2.48,4.03-2.33,1.68-5.59,1.16-7.28-1.17-.42-.59-.29-1.41.3-1.83.59-.42,1.41-.29,1.83.29.84,1.16,2.46,1.42,3.62.58.77-.56,1.28-1.38,1.43-2.32.15-.94-.07-1.88-.63-2.65-1.54-2.14-4.54-2.62-6.68-1.08-2.82,2.04-3.46,5.99-1.42,8.81,22.52,29.18,34.43,64.17,34.43,101.16,0,.72-.59,1.31-1.31,1.31Z"/><path class="cls-5" d="m338.07,315.99c-1.5,0-3.02-.45-4.33-1.4-3.99-2.88-4.89-8.47-2.01-12.46,22.21-28.78,33.93-63.22,33.93-99.63,0-.72.59-1.31,1.31-1.31s1.31.59,1.31,1.31c0,36.99-11.91,71.99-34.46,101.2-2.01,2.79-1.38,6.74,1.45,8.77,2.14,1.54,5.14,1.06,6.68-1.08,1.15-1.59.79-3.83-.8-4.98-1.16-.83-2.78-.57-3.62.59-.42.59-1.24.72-1.83.29-.59-.42-.72-1.24-.3-1.83,1.68-2.33,4.95-2.86,7.28-1.17,2.76,2,3.39,5.87,1.39,8.64-1.45,2-3.71,3.06-6.01,3.06Z"/><path class="cls-5" d="m110.23,59.17c-.43,0-.86-.21-1.11-.6-.39-.61-.21-1.42.4-1.81,27.64-17.67,59.66-27.04,92.61-27.11,1-.65,4.48-3.19,5.02-7.22.47-3.54-1.4-7.42-5.56-11.52-.52-.51-.52-1.34-.01-1.85.51-.52,1.34-.52,1.85-.01,4.78,4.72,6.91,9.35,6.32,13.76-.81,5.99-6.36,9.17-6.6,9.3l-.3.17h-.34c-32.58,0-64.25,9.23-91.57,26.7-.22.14-.46.21-.7.21Z"/><path class="cls-5" d="m294.77,59.17c-.24,0-.49-.07-.71-.21-27.32-17.47-58.99-26.7-91.57-26.7h-.34l-.3-.17c-.24-.13-5.79-3.31-6.6-9.3-.59-4.41,1.53-9.03,6.32-13.76.51-.51,1.34-.5,1.85.01.51.51.5,1.34-.01,1.85-4.17,4.11-6.04,8-5.56,11.54.55,4.04,4.01,6.55,5.01,7.2,32.95.07,64.97,9.44,92.61,27.11.61.39.79,1.2.4,1.81-.25.39-.67.6-1.1.6Z"/><path class="cls-5" d="m57.87,296.08c-.43,0-.86-.21-1.11-.6-17.67-27.64-27.04-59.66-27.11-92.61-.65-1-3.19-4.49-7.22-5.02-3.55-.48-7.42,1.4-11.52,5.56-.51.52-1.34.52-1.85.01-.51-.51-.52-1.34-.01-1.85,4.72-4.79,9.36-6.92,13.75-6.32,5.99.81,9.17,6.36,9.3,6.6l.17.3v.34c0,32.58,9.23,64.25,26.7,91.57.39.61.21,1.42-.4,1.81-.22.14-.46.2-.7.2Z"/><path class="cls-5" d="m21.35,209.83c-3.96,0-8.1-2.15-12.3-6.42-.51-.51-.5-1.34.01-1.85.51-.51,1.34-.5,1.85.02,4.11,4.16,8,6.03,11.54,5.56,4.04-.54,6.56-4.01,7.2-5.01.07-32.95,9.44-64.97,27.11-92.61.39-.61,1.2-.79,1.81-.4.61.39.79,1.2.4,1.81-17.47,27.32-26.7,58.99-26.7,91.57v.34l-.17.3c-.13.24-3.31,5.79-9.3,6.6-.48.06-.96.1-1.45.1Z"/><path class="cls-5" d="m202.5,396.34c-.33,0-.66-.12-.92-.38-4.79-4.72-6.91-9.35-6.32-13.75.81-5.99,6.36-9.17,6.6-9.3l.3-.17h.34c32.58,0,64.25-9.23,91.57-26.7.61-.39,1.42-.21,1.81.4.39.61.21,1.42-.4,1.81-27.64,17.67-59.66,27.04-92.61,27.12-1,.65-4.49,3.19-5.02,7.22-.47,3.54,1.4,7.41,5.56,11.52.52.51.52,1.34.01,1.85-.26.26-.59.39-.93.39Z"/><path class="cls-5" d="m202.5,396.34c-.34,0-.68-.13-.93-.39-.51-.51-.5-1.34.01-1.85,4.16-4.12,6.04-8,5.56-11.54-.54-4.04-4.01-6.55-5.01-7.2-32.96-.07-64.97-9.44-92.61-27.12-.61-.39-.79-1.2-.4-1.81.39-.61,1.2-.79,1.81-.4,27.32,17.47,58.99,26.7,91.57,26.7h.34l.3.17c.24.13,5.79,3.31,6.6,9.3.59,4.4-1.53,9.03-6.32,13.75-.26.25-.59.38-.92.38Z"/><path class="cls-5" d="m383.65,209.83c-.49,0-.97-.03-1.45-.1-5.99-.81-9.17-6.36-9.3-6.6l-.17-.3v-.34c0-32.58-9.23-64.25-26.7-91.57-.39-.61-.21-1.42.4-1.81.61-.39,1.42-.21,1.81.4,17.67,27.64,27.04,59.66,27.11,92.61.65,1,3.2,4.49,7.22,5.02,3.55.47,7.42-1.4,11.52-5.56.51-.52,1.34-.52,1.85-.02.51.51.52,1.34.01,1.85-4.21,4.26-8.34,6.42-12.3,6.42Z"/><path class="cls-5" d="m347.13,296.08c-.24,0-.48-.06-.7-.2-.61-.39-.79-1.2-.4-1.81,17.47-27.32,26.7-58.98,26.7-91.57v-.34l.17-.3c.13-.24,3.31-5.79,9.3-6.6,4.4-.6,9.03,1.53,13.75,6.32.51.51.5,1.34-.01,1.85-.51.51-1.34.5-1.85-.01-4.11-4.16-8-6.04-11.54-5.56-4.04.55-6.55,4.01-7.2,5.01-.07,32.96-9.44,64.97-27.11,92.61-.25.39-.67.6-1.1.6Z"/><path class="cls-5" d="m202.5,89c-62.58,0-113.49,50.91-113.49,113.49s50.91,113.5,113.49,113.5,113.5-50.91,113.5-113.5-50.91-113.49-113.5-113.49Zm0,224.37c-61.14,0-110.88-49.74-110.88-110.88s49.74-110.88,110.88-110.88,110.88,49.74,110.88,110.88-49.74,110.88-110.88,110.88Z"/><text class="cls-1" transform="translate(149.02 340.27) rotate(16.59)"><tspan x="0" y="0">T</tspan></text><text class="cls-1" transform="translate(173.14 347.23) rotate(7.26)"><tspan x="0" y="0">E</tspan></text><text class="cls-1" transform="translate(196.7 350.12) rotate(-2.3)"><tspan x="0" y="0">A</tspan></text><text class="cls-1" transform="translate(223.5 349.21) rotate(-14.48)"><tspan x="0" y="0">M</tspan></text><text class="cls-1" transform="translate(117.59 110.08) rotate(-37.21)"><tspan x="0" y="0">A</tspan></text><text class="cls-1" transform="translate(135.64 96.27) rotate(-26.87)"><tspan x="0" y="0">N</tspan></text><text class="cls-1" transform="translate(154.23 86.61) rotate(-17.19)"><tspan x="0" y="0">A</tspan></text><text class="cls-1" transform="translate(173.71 80.3) rotate(-7.76)"><tspan x="0" y="0">T</tspan></text><text class="cls-1" transform="translate(195.64 77.11) rotate(2.56)"><tspan x="0" y="0">O</tspan></text><text class="cls-1" transform="translate(219.76 78.28) rotate(12.7)"><tspan x="0" y="0">L</tspan></text><text class="cls-1" transform="translate(239.64 82.97) rotate(20.35)"><tspan x="0" y="0">I</tspan></text><text class="cls-1" transform="translate(251.71 87) rotate(28.53)"><tspan x="0" y="0">A</tspan></text><text class="cls-1" transform="translate(271.72 97.8) rotate(38.87)"><tspan x="0" y="0">N</tspan></text><polygon class="cls-2" points="79.77 131.59 79.12 121.71 86.04 128.8 95.25 125.13 90.64 133.9 96.97 141.53 87.2 139.85 81.91 148.23 80.48 138.42 70.88 135.98 79.77 131.59"/><polygon class="cls-2" points="67.72 158.66 65.03 149.12 73.27 154.62 81.51 149.12 78.83 158.66 86.61 164.8 76.71 165.19 73.27 174.49 69.84 165.19 59.94 164.8 67.72 158.66"/><polygon class="cls-2" points="61.56 187.64 56.95 178.87 66.15 182.54 73.07 175.44 72.43 185.33 81.31 189.72 71.71 192.16 70.28 201.97 64.99 193.59 55.22 195.26 61.56 187.64"/><polygon class="cls-2" points="61.56 217.27 55.22 209.65 64.99 211.32 70.28 202.94 71.71 212.75 81.31 215.19 72.43 219.58 73.07 229.47 66.15 222.37 56.95 226.04 61.56 217.27"/><polygon class="cls-2" points="67.72 246.25 59.94 240.11 69.84 239.72 73.27 230.42 76.71 239.72 86.61 240.11 78.83 246.25 81.51 255.79 73.27 250.29 65.03 255.79 67.72 246.25"/><polygon class="cls-2" points="79.77 273.31 70.88 268.93 80.48 266.48 81.91 256.68 87.2 265.06 96.97 263.38 90.64 271 95.25 279.78 86.04 276.11 79.12 283.2 79.77 273.31"/><polygon class="cls-2" points="97.18 297.28 87.58 294.84 96.46 290.45 95.82 280.57 102.74 287.66 111.94 283.99 107.33 292.76 113.67 300.39 103.9 298.71 98.61 307.09 97.18 297.28"/><polygon class="cls-2" points="119.2 317.11 109.3 316.72 117.08 310.58 114.39 301.04 122.63 306.54 130.87 301.04 128.19 310.58 135.97 316.72 126.07 317.11 122.63 326.4 119.2 317.11"/><polygon class="cls-2" points="285.8 317.11 282.37 326.4 278.93 317.11 269.03 316.72 276.81 310.58 274.13 301.04 282.37 306.54 290.61 301.04 287.92 310.58 295.7 316.72 285.8 317.11"/><polygon class="cls-2" points="307.82 297.28 306.39 307.09 301.1 298.71 291.33 300.39 297.67 292.76 293.06 283.99 302.26 287.66 309.18 280.57 308.54 290.45 317.42 294.84 307.82 297.28"/><polygon class="cls-2" points="325.23 273.31 325.88 283.2 318.96 276.11 309.75 279.78 314.36 271 308.03 263.38 317.8 265.06 323.09 256.68 324.52 266.48 334.12 268.93 325.23 273.31"/><polygon class="cls-2" points="337.28 246.25 339.97 255.79 331.73 250.29 323.49 255.79 326.17 246.25 318.39 240.11 328.29 239.72 331.73 230.42 335.16 239.72 345.06 240.11 337.28 246.25"/><polygon class="cls-2" points="343.44 217.27 348.05 226.04 338.85 222.37 331.93 229.47 332.57 219.58 323.69 215.19 333.29 212.75 334.72 202.94 340.01 211.32 349.78 209.65 343.44 217.27"/><polygon class="cls-2" points="343.44 187.64 349.78 195.26 340.01 193.59 334.72 201.97 333.29 192.16 323.69 189.72 332.57 185.33 331.93 175.44 338.85 182.54 348.05 178.87 343.44 187.64"/><polygon class="cls-2" points="337.28 158.66 345.06 164.8 335.16 165.19 331.73 174.49 328.29 165.19 318.39 164.8 326.17 158.66 323.49 149.12 331.73 154.62 339.97 149.12 337.28 158.66"/><polygon class="cls-2" points="325.23 131.59 334.12 135.98 324.52 138.42 323.09 148.23 317.8 139.85 308.03 141.53 314.36 133.9 309.75 125.13 318.96 128.8 325.88 121.71 325.23 131.59"/></svg>